<svg xmlns="http://www.w3.org/2000/svg" viewBox="0 0 256 256" width="256" height="256">
  <rect width="256" height="256" rx="64" fill="#2563eb" />
  <path d="M128 48C83.8 48 48 83.8 48 128s35.8 80 80 80 80-35.8 80-80-35.8-80-80-80zm0 144c-35.3 0-64-28.7-64-64s28.7-64 64-64 64 28.7 64 64-28.7 64-64 64z" fill="#ffffff" opacity="0.5" />
  <path d="M144 96h-32c-17.7 0-32 14.3-32 32s14.3 32 32 32h32v-16h-32c-8.8 0-16-7.2-16-16s7.2-16 16-16h32V96zm-16 40h-32v-16h32v16zm16-40v16h32c8.8 0 16 7.2 16 16s-7.2 16-16 16h-32v16h32c17.7 0 32-14.3 32-32s-14.3-32-32-32h-32z" fill="#ffffff" />
</svg>
